<?xml version="1.0" encoding="UTF-8"?>
<svg xmlns="http://www.w3.org/2000/svg" width="1045" height="922" viewBox="0 0 1045 922" role="img" aria-label="Logo mark">
  <defs>
    <linearGradient id="paleFill" x1="0" y1="0" x2="1045" y2="922" gradientUnits="userSpaceOnUse">
      <stop offset="0" stop-color="#fff9fb"/>
      <stop offset="0.55" stop-color="#fff1f6"/>
      <stop offset="1" stop-color="#ffe8f0"/>
    </linearGradient>
    <linearGradient id="roseFill" x1="0" y1="0" x2="1045" y2="922" gradientUnits="userSpaceOnUse">
      <stop offset="0" stop-color="#ff8fae"/>
      <stop offset="0.55" stop-color="#f86f97"/>
      <stop offset="1" stop-color="#f35d89"/>
    </linearGradient>
  </defs>
  <path d="M 912.0 53.0 L 904.0 45.0 L 903.0 45.0 L 898.0 40.0 L 897.0 40.0 L 890.0 34.0 L 889.0 34.0 L 884.0 30.0 L 875.0 26.0 L 873.0 24.0 L 871.0 24.0 L 861.0 19.0 L 859.0 19.0 L 855.0 17.0 L 852.0 17.0 L 851.0 16.0 L 848.0 16.0 L 847.0 15.0 L 844.0 15.0 L 843.0 14.0 L 839.0 14.0 L 838.0 13.0 L 831.0 13.0 L 830.0 12.0 L 797.0 12.0 L 796.0 13.0 L 781.0 13.0 L 780.0 14.0 L 766.0 14.0 L 765.0 15.0 L 751.0 15.0 L 750.0 16.0 L 735.0 16.0 L 734.0 17.0 L 706.0 18.0 L 705.0 19.0 L 691.0 19.0 L 690.0 20.0 L 677.0 20.0 L 676.0 21.0 L 661.0 21.0 L 660.0 22.0 L 632.0 23.0 L 631.0 24.0 L 617.0 24.0 L 616.0 25.0 L 601.0 25.0 L 600.0 26.0 L 586.0 26.0 L 585.0 27.0 L 571.0 27.0 L 570.0 28.0 L 555.0 28.0 L 554.0 29.0 L 524.0 30.0 L 523.0 31.0 L 509.0 31.0 L 508.0 32.0 L 494.0 32.0 L 493.0 33.0 L 479.0 33.0 L 478.0 34.0 L 449.0 35.0 L 448.0 36.0 L 435.0 36.0 L 434.0 37.0 L 420.0 37.0 L 419.0 38.0 L 405.0 38.0 L 404.0 39.0 L 390.0 39.0 L 389.0 40.0 L 374.0 40.0 L 373.0 41.0 L 360.0 41.0 L 359.0 42.0 L 344.0 42.0 L 343.0 43.0 L 313.0 44.0 L 312.0 45.0 L 283.0 46.0 L 282.0 47.0 L 269.0 47.0 L 268.0 48.0 L 253.0 48.0 L 252.0 49.0 L 239.0 49.0 L 238.0 50.0 L 225.0 50.0 L 224.0 51.0 L 210.0 51.0 L 209.0 52.0 L 202.0 52.0 L 201.0 53.0 L 191.0 54.0 L 190.0 55.0 L 187.0 55.0 L 186.0 56.0 L 180.0 57.0 L 177.0 59.0 L 169.0 61.0 L 146.0 73.0 L 140.0 78.0 L 136.0 80.0 L 132.0 84.0 L 131.0 84.0 L 113.0 102.0 L 113.0 103.0 L 109.0 107.0 L 104.0 115.0 L 101.0 118.0 L 90.0 139.0 L 90.0 141.0 L 88.0 144.0 L 87.0 149.0 L 85.0 152.0 L 85.0 155.0 L 84.0 156.0 L 83.0 162.0 L 82.0 163.0 L 82.0 167.0 L 81.0 168.0 L 81.0 172.0 L 80.0 173.0 L 80.0 178.0 L 79.0 179.0 L 79.0 184.0 L 78.0 185.0 L 78.0 191.0 L 77.0 192.0 L 76.0 205.0 L 75.0 206.0 L 75.0 211.0 L 74.0 212.0 L 74.0 218.0 L 73.0 219.0 L 72.0 232.0 L 71.0 233.0 L 71.0 238.0 L 70.0 239.0 L 70.0 245.0 L 69.0 246.0 L 69.0 252.0 L 68.0 253.0 L 68.0 259.0 L 67.0 260.0 L 67.0 266.0 L 66.0 267.0 L 66.0 273.0 L 65.0 274.0 L 65.0 280.0 L 64.0 281.0 L 63.0 294.0 L 62.0 295.0 L 62.0 300.0 L 61.0 301.0 L 61.0 307.0 L 60.0 308.0 L 59.0 321.0 L 58.0 322.0 L 58.0 327.0 L 57.0 328.0 L 57.0 334.0 L 56.0 335.0 L 56.0 341.0 L 55.0 342.0 L 54.0 355.0 L 53.0 356.0 L 53.0 361.0 L 52.0 362.0 L 52.0 369.0 L 51.0 370.0 L 50.0 383.0 L 49.0 384.0 L 49.0 389.0 L 48.0 390.0 L 48.0 397.0 L 47.0 398.0 L 46.0 410.0 L 45.0 411.0 L 45.0 417.0 L 44.0 418.0 L 44.0 423.0 L 43.0 424.0 L 43.0 430.0 L 42.0 431.0 L 42.0 437.0 L 41.0 438.0 L 41.0 444.0 L 40.0 445.0 L 40.0 451.0 L 39.0 452.0 L 39.0 458.0 L 38.0 459.0 L 38.0 465.0 L 37.0 466.0 L 37.0 472.0 L 36.0 473.0 L 36.0 479.0 L 35.0 480.0 L 35.0 486.0 L 34.0 487.0 L 34.0 493.0 L 33.0 494.0 L 32.0 507.0 L 31.0 508.0 L 31.0 513.0 L 30.0 514.0 L 30.0 520.0 L 29.0 521.0 L 29.0 527.0 L 28.0 528.0 L 28.0 534.0 L 27.0 535.0 L 27.0 541.0 L 26.0 542.0 L 26.0 548.0 L 25.0 549.0 L 24.0 562.0 L 23.0 563.0 L 23.0 568.0 L 22.0 569.0 L 22.0 576.0 L 21.0 577.0 L 21.0 583.0 L 20.0 584.0 L 20.0 590.0 L 19.0 591.0 L 19.0 597.0 L 18.0 598.0 L 18.0 604.0 L 17.0 605.0 L 17.0 611.0 L 16.0 612.0 L 16.0 618.0 L 15.0 619.0 L 15.0 625.0 L 14.0 626.0 L 13.0 639.0 L 12.0 640.0 L 12.0 678.0 L 13.0 679.0 L 13.0 688.0 L 14.0 689.0 L 14.0 697.0 L 15.0 698.0 L 15.0 704.0 L 16.0 705.0 L 17.0 717.0 L 18.0 718.0 L 18.0 722.0 L 19.0 723.0 L 19.0 727.0 L 20.0 728.0 L 20.0 733.0 L 21.0 734.0 L 21.0 737.0 L 22.0 738.0 L 22.0 742.0 L 23.0 743.0 L 24.0 750.0 L 25.0 751.0 L 26.0 757.0 L 29.0 764.0 L 29.0 767.0 L 32.0 773.0 L 32.0 775.0 L 35.0 781.0 L 35.0 783.0 L 47.0 806.0 L 49.0 808.0 L 55.0 818.0 L 59.0 822.0 L 59.0 823.0 L 63.0 827.0 L 63.0 828.0 L 83.0 847.0 L 91.0 852.0 L 94.0 855.0 L 106.0 861.0 L 108.0 863.0 L 110.0 863.0 L 117.0 867.0 L 122.0 868.0 L 125.0 870.0 L 127.0 870.0 L 131.0 872.0 L 134.0 872.0 L 135.0 873.0 L 138.0 873.0 L 139.0 874.0 L 142.0 874.0 L 143.0 875.0 L 147.0 875.0 L 148.0 876.0 L 153.0 876.0 L 154.0 877.0 L 182.0 878.0 L 183.0 877.0 L 201.0 877.0 L 202.0 876.0 L 218.0 876.0 L 219.0 875.0 L 252.0 874.0 L 253.0 873.0 L 285.0 872.0 L 286.0 871.0 L 304.0 871.0 L 305.0 870.0 L 321.0 870.0 L 322.0 869.0 L 355.0 868.0 L 356.0 867.0 L 373.0 867.0 L 374.0 866.0 L 391.0 866.0 L 392.0 865.0 L 409.0 865.0 L 410.0 864.0 L 429.0 864.0 L 430.0 863.0 L 457.0 863.0 L 459.0 865.0 L 459.0 869.0 L 458.0 870.0 L 456.0 881.0 L 457.0 882.0 L 457.0 888.0 L 458.0 889.0 L 460.0 896.0 L 468.0 905.0 L 475.0 909.0 L 481.0 910.0 L 482.0 911.0 L 500.0 911.0 L 501.0 910.0 L 507.0 910.0 L 508.0 909.0 L 516.0 908.0 L 517.0 907.0 L 531.0 903.0 L 534.0 901.0 L 536.0 901.0 L 541.0 898.0 L 543.0 898.0 L 555.0 892.0 L 557.0 890.0 L 569.0 884.0 L 571.0 882.0 L 581.0 876.0 L 584.0 873.0 L 588.0 871.0 L 596.0 864.0 L 598.0 864.0 L 599.0 863.0 L 603.0 863.0 L 604.0 862.0 L 680.0 863.0 L 681.0 864.0 L 713.0 864.0 L 714.0 865.0 L 740.0 865.0 L 741.0 866.0 L 768.0 866.0 L 769.0 867.0 L 819.0 868.0 L 820.0 869.0 L 843.0 869.0 L 844.0 870.0 L 867.0 870.0 L 868.0 871.0 L 907.0 871.0 L 908.0 870.0 L 914.0 870.0 L 915.0 869.0 L 919.0 869.0 L 920.0 868.0 L 927.0 867.0 L 928.0 866.0 L 936.0 864.0 L 939.0 862.0 L 941.0 862.0 L 958.0 853.0 L 960.0 851.0 L 964.0 849.0 L 968.0 845.0 L 969.0 845.0 L 975.0 839.0 L 976.0 839.0 L 989.0 825.0 L 989.0 824.0 L 992.0 821.0 L 992.0 820.0 L 1000.0 809.0 L 1010.0 789.0 L 1010.0 787.0 L 1013.0 782.0 L 1013.0 780.0 L 1014.0 779.0 L 1014.0 777.0 L 1015.0 776.0 L 1015.0 774.0 L 1018.0 767.0 L 1018.0 764.0 L 1019.0 763.0 L 1019.0 760.0 L 1021.0 756.0 L 1021.0 752.0 L 1022.0 751.0 L 1022.0 748.0 L 1023.0 747.0 L 1023.0 743.0 L 1024.0 742.0 L 1025.0 733.0 L 1026.0 732.0 L 1026.0 726.0 L 1027.0 725.0 L 1028.0 713.0 L 1029.0 712.0 L 1029.0 705.0 L 1030.0 704.0 L 1030.0 695.0 L 1031.0 694.0 L 1031.0 685.0 L 1032.0 684.0 L 1032.0 672.0 L 1033.0 671.0 L 1034.0 630.0 L 1033.0 629.0 L 1033.0 619.0 L 1032.0 618.0 L 1031.0 606.0 L 1030.0 605.0 L 1029.0 595.0 L 1028.0 594.0 L 1028.0 590.0 L 1027.0 589.0 L 1027.0 584.0 L 1026.0 583.0 L 1025.0 572.0 L 1024.0 571.0 L 1023.0 561.0 L 1022.0 560.0 L 1022.0 556.0 L 1021.0 555.0 L 1021.0 550.0 L 1020.0 549.0 L 1020.0 545.0 L 1019.0 544.0 L 1019.0 539.0 L 1018.0 538.0 L 1017.0 527.0 L 1016.0 526.0 L 1015.0 516.0 L 1014.0 515.0 L 1014.0 510.0 L 1013.0 509.0 L 1013.0 505.0 L 1012.0 504.0 L 1011.0 493.0 L 1010.0 492.0 L 1009.0 482.0 L 1008.0 481.0 L 1008.0 477.0 L 1007.0 476.0 L 1007.0 471.0 L 1006.0 470.0 L 1006.0 466.0 L 1005.0 465.0 L 1005.0 459.0 L 1004.0 458.0 L 1003.0 448.0 L 1002.0 447.0 L 1002.0 443.0 L 1001.0 442.0 L 1000.0 431.0 L 999.0 430.0 L 998.0 420.0 L 997.0 419.0 L 997.0 415.0 L 996.0 414.0 L 995.0 403.0 L 994.0 402.0 L 993.0 392.0 L 992.0 391.0 L 992.0 387.0 L 991.0 386.0 L 991.0 381.0 L 990.0 380.0 L 990.0 376.0 L 989.0 375.0 L 989.0 370.0 L 988.0 369.0 L 988.0 365.0 L 987.0 364.0 L 986.0 353.0 L 985.0 352.0 L 985.0 348.0 L 984.0 347.0 L 984.0 342.0 L 983.0 341.0 L 983.0 337.0 L 982.0 336.0 L 982.0 331.0 L 981.0 330.0 L 981.0 326.0 L 980.0 325.0 L 980.0 320.0 L 979.0 319.0 L 979.0 315.0 L 978.0 314.0 L 978.0 309.0 L 977.0 308.0 L 977.0 304.0 L 976.0 303.0 L 976.0 298.0 L 975.0 297.0 L 975.0 293.0 L 974.0 292.0 L 974.0 287.0 L 973.0 286.0 L 973.0 282.0 L 972.0 281.0 L 972.0 277.0 L 971.0 276.0 L 970.0 265.0 L 969.0 264.0 L 969.0 260.0 L 968.0 259.0 L 967.0 248.0 L 966.0 247.0 L 965.0 237.0 L 964.0 236.0 L 964.0 232.0 L 963.0 231.0 L 962.0 220.0 L 961.0 219.0 L 961.0 215.0 L 960.0 214.0 L 960.0 209.0 L 959.0 208.0 L 959.0 204.0 L 958.0 203.0 L 958.0 198.0 L 957.0 197.0 L 957.0 193.0 L 956.0 192.0 L 956.0 187.0 L 955.0 186.0 L 955.0 182.0 L 954.0 181.0 L 953.0 170.0 L 952.0 169.0 L 952.0 165.0 L 951.0 164.0 L 951.0 159.0 L 950.0 158.0 L 950.0 154.0 L 949.0 153.0 L 949.0 148.0 L 948.0 147.0 L 948.0 143.0 L 947.0 142.0 L 947.0 137.0 L 946.0 136.0 L 946.0 131.0 L 945.0 130.0 L 945.0 126.0 L 944.0 125.0 L 944.0 120.0 L 943.0 119.0 L 942.0 110.0 L 941.0 109.0 L 941.0 106.0 L 940.0 105.0 L 936.0 91.0 L 933.0 86.0 L 933.0 84.0 L 931.0 80.0 L 929.0 78.0 L 927.0 73.0 L 925.0 71.0 L 921.0 64.0 L 912.0 54.0 Z" fill="url(#paleFill)" fill-rule="evenodd"/>
  <path d="M 916.0 58.0 L 900.0 42.0 L 899.0 42.0 L 895.0 38.0 L 894.0 38.0 L 885.0 31.0 L 880.0 29.0 L 878.0 27.0 L 870.0 23.0 L 868.0 23.0 L 865.0 21.0 L 863.0 21.0 L 857.0 18.0 L 854.0 18.0 L 850.0 16.0 L 842.0 15.0 L 841.0 14.0 L 836.0 14.0 L 835.0 13.0 L 827.0 13.0 L 826.0 12.0 L 803.0 12.0 L 802.0 13.0 L 787.0 13.0 L 786.0 14.0 L 772.0 14.0 L 771.0 15.0 L 757.0 15.0 L 756.0 16.0 L 742.0 16.0 L 741.0 17.0 L 712.0 18.0 L 711.0 19.0 L 698.0 19.0 L 697.0 20.0 L 667.0 21.0 L 666.0 22.0 L 652.0 22.0 L 651.0 23.0 L 637.0 23.0 L 636.0 24.0 L 622.0 24.0 L 621.0 25.0 L 607.0 25.0 L 606.0 26.0 L 592.0 26.0 L 591.0 27.0 L 576.0 27.0 L 575.0 28.0 L 560.0 28.0 L 559.0 29.0 L 545.0 29.0 L 544.0 30.0 L 530.0 30.0 L 529.0 31.0 L 515.0 31.0 L 514.0 32.0 L 500.0 32.0 L 499.0 33.0 L 485.0 33.0 L 484.0 34.0 L 454.0 35.0 L 453.0 36.0 L 425.0 37.0 L 424.0 38.0 L 411.0 38.0 L 410.0 39.0 L 395.0 39.0 L 394.0 40.0 L 380.0 40.0 L 379.0 41.0 L 349.0 42.0 L 348.0 43.0 L 334.0 43.0 L 333.0 44.0 L 319.0 44.0 L 318.0 45.0 L 304.0 45.0 L 303.0 46.0 L 288.0 46.0 L 287.0 47.0 L 274.0 47.0 L 273.0 48.0 L 259.0 48.0 L 258.0 49.0 L 244.0 49.0 L 243.0 50.0 L 231.0 50.0 L 230.0 51.0 L 215.0 51.0 L 214.0 52.0 L 204.0 52.0 L 203.0 53.0 L 198.0 53.0 L 197.0 54.0 L 193.0 54.0 L 192.0 55.0 L 185.0 56.0 L 184.0 57.0 L 170.0 61.0 L 165.0 64.0 L 163.0 64.0 L 157.0 67.0 L 155.0 69.0 L 148.0 72.0 L 135.0 82.0 L 134.0 82.0 L 129.0 87.0 L 128.0 87.0 L 111.0 105.0 L 111.0 106.0 L 107.0 110.0 L 107.0 111.0 L 99.0 122.0 L 88.0 145.0 L 88.0 147.0 L 87.0 148.0 L 87.0 150.0 L 84.0 157.0 L 82.0 168.0 L 81.0 169.0 L 81.0 174.0 L 80.0 175.0 L 80.0 180.0 L 79.0 181.0 L 79.0 187.0 L 78.0 188.0 L 78.0 194.0 L 77.0 195.0 L 77.0 201.0 L 76.0 202.0 L 75.0 214.0 L 74.0 215.0 L 74.0 221.0 L 73.0 222.0 L 73.0 228.0 L 72.0 229.0 L 71.0 241.0 L 70.0 242.0 L 70.0 248.0 L 69.0 249.0 L 69.0 255.0 L 68.0 256.0 L 68.0 262.0 L 67.0 263.0 L 67.0 269.0 L 66.0 270.0 L 66.0 276.0 L 65.0 277.0 L 65.0 283.0 L 64.0 284.0 L 64.0 289.0 L 63.0 290.0 L 63.0 297.0 L 62.0 298.0 L 62.0 303.0 L 61.0 304.0 L 61.0 310.0 L 60.0 311.0 L 60.0 317.0 L 59.0 318.0 L 59.0 323.0 L 58.0 324.0 L 58.0 330.0 L 57.0 331.0 L 57.0 337.0 L 56.0 338.0 L 55.0 351.0 L 54.0 352.0 L 54.0 357.0 L 53.0 358.0 L 53.0 364.0 L 52.0 365.0 L 52.0 371.0 L 51.0 372.0 L 51.0 379.0 L 50.0 380.0 L 50.0 385.0 L 49.0 386.0 L 49.0 392.0 L 48.0 393.0 L 48.0 399.0 L 47.0 400.0 L 46.0 413.0 L 45.0 414.0 L 45.0 419.0 L 44.0 420.0 L 44.0 426.0 L 43.0 427.0 L 43.0 433.0 L 42.0 434.0 L 42.0 440.0 L 41.0 441.0 L 40.0 454.0 L 39.0 455.0 L 39.0 460.0 L 38.0 461.0 L 38.0 468.0 L 37.0 469.0 L 37.0 475.0 L 36.0 476.0 L 36.0 482.0 L 35.0 483.0 L 35.0 489.0 L 34.0 490.0 L 33.0 503.0 L 32.0 504.0 L 32.0 509.0 L 31.0 510.0 L 31.0 516.0 L 30.0 517.0 L 30.0 523.0 L 29.0 524.0 L 29.0 530.0 L 28.0 531.0 L 28.0 537.0 L 27.0 538.0 L 27.0 544.0 L 26.0 545.0 L 25.0 558.0 L 24.0 559.0 L 24.0 564.0 L 23.0 565.0 L 23.0 571.0 L 22.0 572.0 L 22.0 578.0 L 21.0 579.0 L 21.0 586.0 L 20.0 587.0 L 20.0 593.0 L 19.0 594.0 L 19.0 600.0 L 18.0 601.0 L 18.0 607.0 L 17.0 608.0 L 17.0 614.0 L 16.0 615.0 L 16.0 621.0 L 15.0 622.0 L 15.0 628.0 L 14.0 629.0 L 14.0 635.0 L 13.0 636.0 L 13.0 645.0 L 12.0 646.0 L 12.0 669.0 L 13.0 670.0 L 13.0 684.0 L 14.0 685.0 L 15.0 701.0 L 16.0 702.0 L 16.0 708.0 L 17.0 709.0 L 17.0 714.0 L 18.0 715.0 L 18.0 720.0 L 19.0 721.0 L 19.0 725.0 L 20.0 726.0 L 20.0 730.0 L 21.0 731.0 L 22.0 740.0 L 23.0 741.0 L 25.0 752.0 L 27.0 756.0 L 27.0 759.0 L 28.0 760.0 L 28.0 762.0 L 29.0 763.0 L 33.0 777.0 L 35.0 780.0 L 35.0 782.0 L 45.0 802.0 L 47.0 804.0 L 48.0 807.0 L 50.0 809.0 L 54.0 816.0 L 61.0 824.0 L 61.0 825.0 L 68.0 832.0 L 68.0 833.0 L 86.0 849.0 L 87.0 849.0 L 98.0 857.0 L 111.0 864.0 L 113.0 864.0 L 118.0 867.0 L 120.0 867.0 L 126.0 870.0 L 132.0 871.0 L 136.0 873.0 L 144.0 874.0 L 145.0 875.0 L 150.0 875.0 L 151.0 876.0 L 157.0 876.0 L 158.0 877.0 L 194.0 877.0 L 195.0 876.0 L 212.0 876.0 L 213.0 875.0 L 246.0 874.0 L 247.0 873.0 L 279.0 872.0 L 280.0 871.0 L 315.0 870.0 L 316.0 869.0 L 331.0 869.0 L 332.0 868.0 L 349.0 868.0 L 350.0 867.0 L 367.0 867.0 L 368.0 866.0 L 385.0 866.0 L 386.0 865.0 L 403.0 865.0 L 404.0 864.0 L 422.0 864.0 L 423.0 863.0 L 446.0 863.0 L 447.0 862.0 L 456.0 862.0 L 459.0 864.0 L 459.0 871.0 L 458.0 872.0 L 458.0 875.0 L 457.0 876.0 L 457.0 886.0 L 458.0 887.0 L 458.0 890.0 L 461.0 897.0 L 464.0 900.0 L 464.0 901.0 L 470.0 906.0 L 476.0 909.0 L 478.0 909.0 L 479.0 910.0 L 484.0 910.0 L 485.0 911.0 L 495.0 911.0 L 496.0 910.0 L 505.0 910.0 L 506.0 909.0 L 510.0 909.0 L 511.0 908.0 L 518.0 907.0 L 519.0 906.0 L 530.0 903.0 L 538.0 899.0 L 540.0 899.0 L 570.0 883.0 L 572.0 881.0 L 582.0 875.0 L 593.0 866.0 L 601.0 862.0 L 656.0 862.0 L 657.0 863.0 L 691.0 863.0 L 692.0 864.0 L 722.0 864.0 L 723.0 865.0 L 777.0 866.0 L 778.0 867.0 L 829.0 868.0 L 830.0 869.0 L 876.0 870.0 L 877.0 871.0 L 904.0 871.0 L 905.0 870.0 L 912.0 870.0 L 913.0 869.0 L 917.0 869.0 L 918.0 868.0 L 921.0 868.0 L 922.0 867.0 L 926.0 867.0 L 927.0 866.0 L 935.0 864.0 L 938.0 862.0 L 940.0 862.0 L 956.0 854.0 L 965.0 847.0 L 966.0 847.0 L 970.0 843.0 L 971.0 843.0 L 987.0 827.0 L 987.0 826.0 L 990.0 823.0 L 990.0 822.0 L 993.0 819.0 L 993.0 818.0 L 999.0 810.0 L 1010.0 788.0 L 1010.0 786.0 L 1012.0 783.0 L 1013.0 778.0 L 1015.0 775.0 L 1015.0 772.0 L 1016.0 771.0 L 1016.0 769.0 L 1018.0 765.0 L 1018.0 762.0 L 1020.0 758.0 L 1020.0 754.0 L 1021.0 753.0 L 1021.0 750.0 L 1022.0 749.0 L 1022.0 745.0 L 1023.0 744.0 L 1023.0 741.0 L 1024.0 740.0 L 1024.0 735.0 L 1025.0 734.0 L 1025.0 730.0 L 1026.0 729.0 L 1026.0 723.0 L 1027.0 722.0 L 1027.0 716.0 L 1028.0 715.0 L 1028.0 709.0 L 1029.0 708.0 L 1029.0 701.0 L 1030.0 700.0 L 1030.0 691.0 L 1031.0 690.0 L 1031.0 679.0 L 1032.0 678.0 L 1032.0 663.0 L 1033.0 662.0 L 1033.0 623.0 L 1032.0 622.0 L 1032.0 615.0 L 1031.0 614.0 L 1030.0 603.0 L 1029.0 602.0 L 1029.0 598.0 L 1028.0 597.0 L 1027.0 586.0 L 1026.0 585.0 L 1026.0 581.0 L 1025.0 580.0 L 1024.0 569.0 L 1023.0 568.0 L 1022.0 558.0 L 1021.0 557.0 L 1021.0 553.0 L 1020.0 552.0 L 1020.0 547.0 L 1019.0 546.0 L 1019.0 542.0 L 1018.0 541.0 L 1018.0 536.0 L 1017.0 535.0 L 1016.0 524.0 L 1015.0 523.0 L 1014.0 513.0 L 1013.0 512.0 L 1013.0 508.0 L 1012.0 507.0 L 1011.0 496.0 L 1010.0 495.0 L 1010.0 491.0 L 1009.0 490.0 L 1008.0 479.0 L 1007.0 478.0 L 1006.0 468.0 L 1005.0 467.0 L 1005.0 463.0 L 1004.0 462.0 L 1004.0 457.0 L 1003.0 456.0 L 1003.0 451.0 L 1002.0 450.0 L 1001.0 439.0 L 1000.0 438.0 L 1000.0 434.0 L 999.0 433.0 L 998.0 422.0 L 997.0 421.0 L 997.0 417.0 L 996.0 416.0 L 996.0 411.0 L 995.0 410.0 L 994.0 400.0 L 993.0 399.0 L 993.0 395.0 L 992.0 394.0 L 992.0 389.0 L 991.0 388.0 L 991.0 384.0 L 990.0 383.0 L 990.0 378.0 L 989.0 377.0 L 989.0 373.0 L 988.0 372.0 L 987.0 361.0 L 986.0 360.0 L 985.0 350.0 L 984.0 349.0 L 984.0 345.0 L 983.0 344.0 L 983.0 339.0 L 982.0 338.0 L 982.0 334.0 L 981.0 333.0 L 981.0 328.0 L 980.0 327.0 L 980.0 323.0 L 979.0 322.0 L 979.0 317.0 L 978.0 316.0 L 978.0 312.0 L 977.0 311.0 L 976.0 300.0 L 975.0 299.0 L 975.0 295.0 L 974.0 294.0 L 974.0 290.0 L 973.0 289.0 L 973.0 284.0 L 972.0 283.0 L 972.0 279.0 L 971.0 278.0 L 971.0 273.0 L 970.0 272.0 L 970.0 268.0 L 969.0 267.0 L 968.0 256.0 L 967.0 255.0 L 967.0 251.0 L 966.0 250.0 L 965.0 239.0 L 964.0 238.0 L 963.0 228.0 L 962.0 227.0 L 962.0 222.0 L 961.0 221.0 L 961.0 217.0 L 960.0 216.0 L 960.0 212.0 L 959.0 211.0 L 958.0 200.0 L 957.0 199.0 L 957.0 195.0 L 956.0 194.0 L 956.0 189.0 L 955.0 188.0 L 955.0 184.0 L 954.0 183.0 L 953.0 172.0 L 952.0 171.0 L 952.0 167.0 L 951.0 166.0 L 951.0 161.0 L 950.0 160.0 L 950.0 156.0 L 949.0 155.0 L 949.0 150.0 L 948.0 149.0 L 948.0 144.0 L 947.0 143.0 L 947.0 139.0 L 946.0 138.0 L 946.0 133.0 L 945.0 132.0 L 945.0 127.0 L 944.0 126.0 L 944.0 122.0 L 943.0 121.0 L 942.0 112.0 L 941.0 111.0 L 940.0 104.0 L 939.0 103.0 L 936.0 92.0 L 934.0 89.0 L 934.0 87.0 L 926.0 72.0 L 924.0 70.0 L 920.0 63.0 L 916.0 59.0 Z
M 901.0 78.0 L 910.0 94.0 L 910.0 96.0 L 912.0 99.0 L 912.0 101.0 L 913.0 102.0 L 913.0 104.0 L 916.0 111.0 L 916.0 114.0 L 917.0 115.0 L 918.0 126.0 L 919.0 127.0 L 919.0 131.0 L 920.0 132.0 L 920.0 137.0 L 921.0 138.0 L 922.0 148.0 L 923.0 149.0 L 923.0 154.0 L 924.0 155.0 L 925.0 165.0 L 926.0 166.0 L 926.0 170.0 L 927.0 171.0 L 928.0 182.0 L 929.0 183.0 L 929.0 187.0 L 930.0 188.0 L 930.0 192.0 L 931.0 193.0 L 931.0 198.0 L 932.0 199.0 L 932.0 203.0 L 933.0 204.0 L 933.0 209.0 L 934.0 210.0 L 934.0 215.0 L 935.0 216.0 L 936.0 227.0 L 937.0 228.0 L 937.0 232.0 L 938.0 233.0 L 938.0 238.0 L 939.0 239.0 L 939.0 244.0 L 940.0 245.0 L 941.0 255.0 L 942.0 256.0 L 942.0 260.0 L 943.0 261.0 L 944.0 272.0 L 945.0 273.0 L 945.0 277.0 L 946.0 278.0 L 946.0 282.0 L 947.0 283.0 L 947.0 288.0 L 948.0 289.0 L 948.0 293.0 L 949.0 294.0 L 949.0 299.0 L 950.0 300.0 L 951.0 311.0 L 952.0 312.0 L 953.0 322.0 L 954.0 323.0 L 954.0 327.0 L 955.0 328.0 L 955.0 333.0 L 956.0 334.0 L 956.0 338.0 L 957.0 339.0 L 957.0 344.0 L 958.0 345.0 L 959.0 356.0 L 960.0 357.0 L 961.0 367.0 L 962.0 368.0 L 962.0 372.0 L 963.0 373.0 L 963.0 378.0 L 964.0 379.0 L 964.0 383.0 L 965.0 384.0 L 965.0 389.0 L 966.0 390.0 L 967.0 401.0 L 968.0 402.0 L 969.0 412.0 L 970.0 413.0 L 970.0 417.0 L 971.0 418.0 L 971.0 423.0 L 972.0 424.0 L 972.0 428.0 L 973.0 429.0 L 973.0 434.0 L 974.0 435.0 L 975.0 446.0 L 976.0 447.0 L 977.0 457.0 L 978.0 458.0 L 978.0 462.0 L 979.0 463.0 L 979.0 468.0 L 980.0 469.0 L 981.0 480.0 L 982.0 481.0 L 982.0 485.0 L 983.0 486.0 L 984.0 497.0 L 985.0 498.0 L 985.0 502.0 L 986.0 503.0 L 987.0 514.0 L 988.0 515.0 L 988.0 519.0 L 989.0 520.0 L 989.0 525.0 L 990.0 526.0 L 991.0 537.0 L 992.0 538.0 L 992.0 542.0 L 993.0 543.0 L 993.0 548.0 L 994.0 549.0 L 994.0 553.0 L 995.0 554.0 L 995.0 559.0 L 996.0 560.0 L 996.0 564.0 L 997.0 565.0 L 997.0 570.0 L 998.0 571.0 L 998.0 576.0 L 999.0 577.0 L 999.0 582.0 L 1000.0 583.0 L 1000.0 588.0 L 1001.0 589.0 L 1001.0 594.0 L 1002.0 595.0 L 1002.0 600.0 L 1003.0 601.0 L 1003.0 606.0 L 1004.0 607.0 L 1005.0 618.0 L 1006.0 619.0 L 1006.0 624.0 L 1007.0 625.0 L 1007.0 643.0 L 1006.0 644.0 L 1006.0 652.0 L 1005.0 653.0 L 1005.0 658.0 L 1004.0 659.0 L 1004.0 662.0 L 1002.0 666.0 L 1002.0 669.0 L 992.0 689.0 L 988.0 693.0 L 988.0 694.0 L 980.0 701.0 L 967.0 708.0 L 965.0 708.0 L 961.0 710.0 L 956.0 710.0 L 955.0 711.0 L 929.0 711.0 L 928.0 710.0 L 913.0 709.0 L 912.0 708.0 L 898.0 707.0 L 897.0 706.0 L 883.0 705.0 L 882.0 704.0 L 875.0 704.0 L 874.0 703.0 L 867.0 703.0 L 866.0 702.0 L 859.0 702.0 L 858.0 701.0 L 850.0 701.0 L 849.0 700.0 L 833.0 699.0 L 832.0 698.0 L 823.0 698.0 L 822.0 697.0 L 816.0 697.0 L 815.0 696.0 L 816.0 694.0 L 820.0 692.0 L 829.0 684.0 L 830.0 684.0 L 839.0 674.0 L 839.0 673.0 L 842.0 670.0 L 843.0 667.0 L 845.0 665.0 L 852.0 648.0 L 852.0 645.0 L 853.0 644.0 L 853.0 641.0 L 854.0 640.0 L 854.0 634.0 L 855.0 633.0 L 855.0 614.0 L 854.0 613.0 L 854.0 606.0 L 853.0 605.0 L 853.0 599.0 L 852.0 598.0 L 851.0 591.0 L 850.0 590.0 L 850.0 588.0 L 849.0 587.0 L 849.0 585.0 L 848.0 584.0 L 848.0 582.0 L 845.0 575.0 L 845.0 573.0 L 846.0 572.0 L 849.0 573.0 L 853.0 577.0 L 854.0 577.0 L 869.0 592.0 L 869.0 593.0 L 876.0 602.0 L 883.0 618.0 L 883.0 621.0 L 884.0 622.0 L 884.0 628.0 L 885.0 629.0 L 884.0 643.0 L 883.0 644.0 L 882.0 650.0 L 875.0 663.0 L 882.0 661.0 L 884.0 659.0 L 887.0 658.0 L 893.0 652.0 L 894.0 652.0 L 894.0 651.0 L 899.0 646.0 L 900.0 643.0 L 902.0 641.0 L 906.0 633.0 L 906.0 631.0 L 908.0 627.0 L 908.0 624.0 L 909.0 623.0 L 909.0 618.0 L 910.0 617.0 L 910.0 602.0 L 909.0 601.0 L 909.0 596.0 L 908.0 595.0 L 908.0 592.0 L 907.0 591.0 L 906.0 586.0 L 900.0 574.0 L 898.0 572.0 L 894.0 565.0 L 884.0 554.0 L 884.0 553.0 L 863.0 532.0 L 863.0 531.0 L 854.0 522.0 L 854.0 521.0 L 844.0 509.0 L 843.0 506.0 L 836.0 496.0 L 827.0 475.0 L 827.0 472.0 L 826.0 471.0 L 825.0 465.0 L 824.0 464.0 L 823.0 455.0 L 822.0 454.0 L 822.0 449.0 L 821.0 448.0 L 821.0 442.0 L 820.0 441.0 L 820.0 436.0 L 819.0 435.0 L 819.0 430.0 L 818.0 429.0 L 818.0 423.0 L 817.0 422.0 L 817.0 418.0 L 816.0 417.0 L 816.0 412.0 L 815.0 411.0 L 815.0 408.0 L 814.0 407.0 L 813.0 398.0 L 812.0 397.0 L 811.0 389.0 L 810.0 388.0 L 810.0 385.0 L 808.0 381.0 L 806.0 370.0 L 804.0 366.0 L 804.0 363.0 L 801.0 356.0 L 800.0 350.0 L 798.0 347.0 L 798.0 345.0 L 797.0 344.0 L 796.0 339.0 L 794.0 336.0 L 793.0 331.0 L 791.0 328.0 L 791.0 326.0 L 783.0 310.0 L 783.0 308.0 L 775.0 293.0 L 775.0 291.0 L 776.0 290.0 L 776.0 288.0 L 779.0 281.0 L 779.0 278.0 L 781.0 274.0 L 781.0 271.0 L 782.0 270.0 L 782.0 266.0 L 783.0 265.0 L 784.0 257.0 L 785.0 256.0 L 785.0 251.0 L 786.0 250.0 L 786.0 245.0 L 787.0 244.0 L 787.0 239.0 L 788.0 238.0 L 789.0 221.0 L 790.0 220.0 L 791.0 183.0 L 790.0 182.0 L 790.0 167.0 L 789.0 166.0 L 789.0 158.0 L 788.0 157.0 L 788.0 152.0 L 787.0 151.0 L 787.0 146.0 L 786.0 145.0 L 786.0 141.0 L 785.0 140.0 L 784.0 133.0 L 783.0 132.0 L 780.0 121.0 L 774.0 111.0 L 772.0 109.0 L 765.0 105.0 L 752.0 105.0 L 751.0 106.0 L 746.0 106.0 L 745.0 107.0 L 734.0 109.0 L 733.0 110.0 L 719.0 114.0 L 716.0 116.0 L 714.0 116.0 L 711.0 118.0 L 704.0 120.0 L 699.0 123.0 L 697.0 123.0 L 673.0 135.0 L 671.0 137.0 L 666.0 139.0 L 664.0 141.0 L 656.0 145.0 L 654.0 147.0 L 635.0 159.0 L 618.0 173.0 L 615.0 173.0 L 614.0 172.0 L 612.0 172.0 L 611.0 171.0 L 609.0 171.0 L 608.0 170.0 L 606.0 170.0 L 599.0 167.0 L 596.0 167.0 L 595.0 166.0 L 592.0 166.0 L 591.0 165.0 L 587.0 165.0 L 586.0 164.0 L 582.0 164.0 L 581.0 163.0 L 577.0 163.0 L 576.0 162.0 L 571.0 162.0 L 570.0 161.0 L 554.0 160.0 L 553.0 159.0 L 533.0 159.0 L 532.0 158.0 L 527.0 158.0 L 526.0 159.0 L 508.0 159.0 L 507.0 158.0 L 507.0 151.0 L 508.0 150.0 L 508.0 148.0 L 510.0 145.0 L 510.0 143.0 L 517.0 134.0 L 517.0 133.0 L 523.0 127.0 L 524.0 127.0 L 532.0 121.0 L 536.0 119.0 L 538.0 119.0 L 541.0 117.0 L 543.0 117.0 L 547.0 115.0 L 550.0 115.0 L 550.0 114.0 L 539.0 113.0 L 538.0 112.0 L 524.0 112.0 L 523.0 113.0 L 517.0 113.0 L 516.0 114.0 L 513.0 114.0 L 512.0 115.0 L 510.0 115.0 L 509.0 116.0 L 507.0 116.0 L 504.0 118.0 L 500.0 119.0 L 498.0 121.0 L 494.0 123.0 L 486.0 131.0 L 480.0 143.0 L 480.0 154.0 L 481.0 155.0 L 481.0 158.0 L 482.0 159.0 L 482.0 161.0 L 480.0 163.0 L 470.0 164.0 L 469.0 165.0 L 465.0 165.0 L 464.0 166.0 L 453.0 168.0 L 449.0 170.0 L 446.0 170.0 L 445.0 171.0 L 443.0 171.0 L 442.0 172.0 L 440.0 172.0 L 439.0 173.0 L 425.0 177.0 L 417.0 181.0 L 413.0 180.0 L 396.0 168.0 L 393.0 167.0 L 386.0 162.0 L 381.0 160.0 L 379.0 158.0 L 353.0 145.0 L 351.0 145.0 L 346.0 142.0 L 344.0 142.0 L 341.0 140.0 L 339.0 140.0 L 331.0 136.0 L 329.0 136.0 L 328.0 135.0 L 326.0 135.0 L 325.0 134.0 L 323.0 134.0 L 322.0 133.0 L 320.0 133.0 L 319.0 132.0 L 317.0 132.0 L 310.0 129.0 L 307.0 129.0 L 306.0 128.0 L 303.0 128.0 L 302.0 127.0 L 299.0 127.0 L 298.0 126.0 L 295.0 126.0 L 294.0 125.0 L 290.0 125.0 L 289.0 124.0 L 278.0 123.0 L 277.0 122.0 L 262.0 122.0 L 256.0 125.0 L 249.0 133.0 L 246.0 139.0 L 246.0 141.0 L 244.0 145.0 L 244.0 148.0 L 243.0 149.0 L 243.0 152.0 L 242.0 153.0 L 241.0 163.0 L 240.0 164.0 L 240.0 171.0 L 239.0 172.0 L 238.0 201.0 L 239.0 202.0 L 239.0 219.0 L 240.0 220.0 L 240.0 229.0 L 241.0 230.0 L 242.0 243.0 L 243.0 244.0 L 243.0 249.0 L 244.0 250.0 L 244.0 254.0 L 245.0 255.0 L 246.0 264.0 L 247.0 265.0 L 247.0 268.0 L 248.0 269.0 L 250.0 280.0 L 253.0 287.0 L 253.0 290.0 L 254.0 291.0 L 255.0 296.0 L 257.0 299.0 L 258.0 304.0 L 260.0 307.0 L 260.0 309.0 L 263.0 314.0 L 264.0 318.0 L 261.0 323.0 L 261.0 325.0 L 257.0 333.0 L 256.0 338.0 L 254.0 341.0 L 254.0 343.0 L 253.0 344.0 L 253.0 346.0 L 252.0 347.0 L 252.0 349.0 L 249.0 356.0 L 249.0 359.0 L 246.0 366.0 L 246.0 369.0 L 245.0 370.0 L 245.0 373.0 L 244.0 374.0 L 244.0 377.0 L 243.0 378.0 L 243.0 381.0 L 242.0 382.0 L 242.0 385.0 L 241.0 386.0 L 241.0 390.0 L 240.0 391.0 L 240.0 395.0 L 239.0 396.0 L 239.0 400.0 L 238.0 401.0 L 238.0 405.0 L 237.0 406.0 L 237.0 411.0 L 236.0 412.0 L 236.0 417.0 L 235.0 418.0 L 235.0 424.0 L 234.0 425.0 L 234.0 432.0 L 233.0 433.0 L 233.0 440.0 L 232.0 441.0 L 232.0 448.0 L 231.0 449.0 L 231.0 457.0 L 230.0 458.0 L 229.0 473.0 L 228.0 474.0 L 228.0 479.0 L 227.0 480.0 L 227.0 484.0 L 226.0 485.0 L 226.0 488.0 L 225.0 489.0 L 224.0 495.0 L 222.0 498.0 L 220.0 505.0 L 216.0 513.0 L 211.0 520.0 L 210.0 523.0 L 207.0 526.0 L 205.0 530.0 L 198.0 538.0 L 198.0 539.0 L 180.0 559.0 L 180.0 560.0 L 175.0 565.0 L 175.0 566.0 L 169.0 573.0 L 169.0 574.0 L 165.0 579.0 L 157.0 595.0 L 157.0 597.0 L 155.0 601.0 L 155.0 604.0 L 154.0 605.0 L 154.0 609.0 L 153.0 610.0 L 153.0 622.0 L 152.0 623.0 L 153.0 625.0 L 153.0 633.0 L 154.0 634.0 L 155.0 642.0 L 157.0 645.0 L 157.0 647.0 L 161.0 655.0 L 163.0 657.0 L 165.0 661.0 L 173.0 669.0 L 183.0 675.0 L 185.0 675.0 L 188.0 677.0 L 192.0 677.0 L 194.0 678.0 L 194.0 677.0 L 186.0 668.0 L 180.0 655.0 L 180.0 651.0 L 179.0 650.0 L 179.0 633.0 L 180.0 632.0 L 180.0 628.0 L 181.0 627.0 L 183.0 619.0 L 185.0 616.0 L 185.0 614.0 L 192.0 602.0 L 200.0 593.0 L 200.0 592.0 L 210.0 582.0 L 215.0 579.0 L 216.0 580.0 L 216.0 582.0 L 215.0 583.0 L 215.0 585.0 L 212.0 592.0 L 212.0 595.0 L 211.0 596.0 L 211.0 599.0 L 210.0 600.0 L 210.0 603.0 L 209.0 604.0 L 209.0 608.0 L 208.0 609.0 L 208.0 615.0 L 207.0 616.0 L 207.0 628.0 L 206.0 629.0 L 206.0 640.0 L 207.0 641.0 L 207.0 648.0 L 208.0 649.0 L 208.0 653.0 L 209.0 654.0 L 210.0 661.0 L 211.0 662.0 L 213.0 670.0 L 217.0 678.0 L 219.0 680.0 L 221.0 684.0 L 226.0 689.0 L 226.0 690.0 L 235.0 699.0 L 236.0 699.0 L 236.0 686.0 L 237.0 685.0 L 237.0 680.0 L 238.0 679.0 L 238.0 676.0 L 239.0 675.0 L 240.0 670.0 L 242.0 667.0 L 242.0 665.0 L 246.0 657.0 L 253.0 648.0 L 253.0 647.0 L 266.0 634.0 L 267.0 634.0 L 270.0 631.0 L 271.0 631.0 L 276.0 627.0 L 279.0 626.0 L 281.0 624.0 L 285.0 623.0 L 290.0 620.0 L 292.0 620.0 L 296.0 618.0 L 299.0 618.0 L 300.0 617.0 L 302.0 617.0 L 303.0 616.0 L 307.0 616.0 L 308.0 615.0 L 315.0 615.0 L 316.0 614.0 L 334.0 614.0 L 335.0 615.0 L 340.0 615.0 L 341.0 616.0 L 349.0 617.0 L 350.0 618.0 L 358.0 620.0 L 364.0 623.0 L 366.0 625.0 L 371.0 627.0 L 377.0 632.0 L 378.0 632.0 L 390.0 644.0 L 390.0 645.0 L 395.0 651.0 L 397.0 656.0 L 399.0 658.0 L 401.0 662.0 L 401.0 664.0 L 404.0 671.0 L 405.0 678.0 L 406.0 679.0 L 406.0 686.0 L 407.0 687.0 L 407.0 694.0 L 406.0 695.0 L 406.0 698.0 L 403.0 701.0 L 401.0 701.0 L 400.0 702.0 L 398.0 702.0 L 397.0 701.0 L 397.0 688.0 L 396.0 687.0 L 396.0 682.0 L 395.0 681.0 L 395.0 678.0 L 393.0 674.0 L 393.0 671.0 L 391.0 668.0 L 391.0 666.0 L 389.0 662.0 L 387.0 660.0 L 386.0 657.0 L 381.0 651.0 L 381.0 650.0 L 373.0 642.0 L 372.0 642.0 L 368.0 638.0 L 362.0 635.0 L 360.0 633.0 L 356.0 632.0 L 353.0 630.0 L 345.0 628.0 L 344.0 627.0 L 334.0 626.0 L 333.0 625.0 L 316.0 625.0 L 315.0 626.0 L 308.0 626.0 L 307.0 627.0 L 300.0 628.0 L 299.0 629.0 L 294.0 630.0 L 291.0 632.0 L 289.0 632.0 L 273.0 642.0 L 260.0 655.0 L 260.0 656.0 L 256.0 661.0 L 250.0 673.0 L 250.0 675.0 L 248.0 679.0 L 248.0 682.0 L 247.0 683.0 L 247.0 687.0 L 246.0 688.0 L 246.0 708.0 L 247.0 709.0 L 247.0 714.0 L 246.0 715.0 L 240.0 712.0 L 238.0 710.0 L 236.0 706.0 L 236.0 704.0 L 235.0 704.0 L 234.0 705.0 L 218.0 706.0 L 217.0 707.0 L 211.0 707.0 L 210.0 708.0 L 202.0 708.0 L 201.0 709.0 L 187.0 710.0 L 186.0 711.0 L 180.0 711.0 L 179.0 712.0 L 172.0 712.0 L 171.0 713.0 L 165.0 713.0 L 164.0 714.0 L 157.0 714.0 L 156.0 715.0 L 150.0 715.0 L 149.0 716.0 L 143.0 716.0 L 142.0 717.0 L 136.0 717.0 L 135.0 718.0 L 128.0 718.0 L 127.0 719.0 L 120.0 719.0 L 119.0 720.0 L 98.0 720.0 L 97.0 719.0 L 86.0 718.0 L 85.0 717.0 L 77.0 715.0 L 67.0 710.0 L 61.0 705.0 L 60.0 705.0 L 50.0 694.0 L 42.0 679.0 L 42.0 677.0 L 40.0 673.0 L 40.0 670.0 L 39.0 669.0 L 39.0 665.0 L 38.0 664.0 L 38.0 654.0 L 37.0 653.0 L 37.0 649.0 L 38.0 648.0 L 38.0 638.0 L 39.0 637.0 L 39.0 630.0 L 40.0 629.0 L 40.0 623.0 L 41.0 622.0 L 41.0 616.0 L 42.0 615.0 L 42.0 608.0 L 43.0 607.0 L 43.0 601.0 L 44.0 600.0 L 44.0 594.0 L 45.0 593.0 L 45.0 587.0 L 46.0 586.0 L 46.0 580.0 L 47.0 579.0 L 47.0 572.0 L 48.0 571.0 L 48.0 565.0 L 49.0 564.0 L 49.0 558.0 L 50.0 557.0 L 50.0 551.0 L 51.0 550.0 L 51.0 543.0 L 52.0 542.0 L 52.0 536.0 L 53.0 535.0 L 53.0 529.0 L 54.0 528.0 L 54.0 522.0 L 55.0 521.0 L 55.0 515.0 L 56.0 514.0 L 57.0 499.0 L 58.0 498.0 L 58.0 492.0 L 59.0 491.0 L 59.0 485.0 L 60.0 484.0 L 60.0 478.0 L 61.0 477.0 L 61.0 471.0 L 62.0 470.0 L 62.0 464.0 L 63.0 463.0 L 63.0 457.0 L 64.0 456.0 L 64.0 449.0 L 65.0 448.0 L 65.0 443.0 L 66.0 442.0 L 66.0 435.0 L 67.0 434.0 L 67.0 428.0 L 68.0 427.0 L 68.0 421.0 L 69.0 420.0 L 69.0 414.0 L 70.0 413.0 L 70.0 407.0 L 71.0 406.0 L 71.0 400.0 L 72.0 399.0 L 72.0 393.0 L 73.0 392.0 L 73.0 385.0 L 74.0 384.0 L 74.0 379.0 L 75.0 378.0 L 75.0 371.0 L 76.0 370.0 L 77.0 357.0 L 78.0 356.0 L 78.0 351.0 L 79.0 350.0 L 80.0 336.0 L 81.0 335.0 L 82.0 323.0 L 83.0 322.0 L 83.0 315.0 L 84.0 314.0 L 84.0 308.0 L 85.0 307.0 L 85.0 301.0 L 86.0 300.0 L 86.0 294.0 L 87.0 293.0 L 87.0 287.0 L 88.0 286.0 L 88.0 279.0 L 89.0 278.0 L 89.0 272.0 L 90.0 271.0 L 90.0 265.0 L 91.0 264.0 L 91.0 258.0 L 92.0 257.0 L 93.0 244.0 L 94.0 243.0 L 94.0 238.0 L 95.0 237.0 L 95.0 230.0 L 96.0 229.0 L 96.0 224.0 L 97.0 223.0 L 97.0 217.0 L 98.0 216.0 L 98.0 210.0 L 99.0 209.0 L 99.0 203.0 L 100.0 202.0 L 100.0 196.0 L 101.0 195.0 L 101.0 189.0 L 102.0 188.0 L 103.0 175.0 L 104.0 174.0 L 105.0 165.0 L 106.0 164.0 L 110.0 150.0 L 119.0 132.0 L 121.0 130.0 L 125.0 123.0 L 128.0 120.0 L 128.0 119.0 L 135.0 112.0 L 135.0 111.0 L 147.0 100.0 L 148.0 100.0 L 155.0 94.0 L 161.0 91.0 L 163.0 89.0 L 182.0 80.0 L 184.0 80.0 L 188.0 78.0 L 191.0 78.0 L 192.0 77.0 L 195.0 77.0 L 196.0 76.0 L 199.0 76.0 L 200.0 75.0 L 205.0 75.0 L 206.0 74.0 L 219.0 74.0 L 220.0 73.0 L 233.0 73.0 L 234.0 72.0 L 248.0 72.0 L 249.0 71.0 L 263.0 71.0 L 264.0 70.0 L 278.0 70.0 L 279.0 69.0 L 293.0 69.0 L 294.0 68.0 L 308.0 68.0 L 309.0 67.0 L 322.0 67.0 L 323.0 66.0 L 338.0 66.0 L 339.0 65.0 L 353.0 65.0 L 354.0 64.0 L 369.0 64.0 L 370.0 63.0 L 383.0 63.0 L 384.0 62.0 L 414.0 61.0 L 415.0 60.0 L 429.0 60.0 L 430.0 59.0 L 445.0 59.0 L 446.0 58.0 L 460.0 58.0 L 461.0 57.0 L 476.0 57.0 L 477.0 56.0 L 506.0 55.0 L 507.0 54.0 L 521.0 54.0 L 522.0 53.0 L 537.0 53.0 L 538.0 52.0 L 552.0 52.0 L 553.0 51.0 L 567.0 51.0 L 568.0 50.0 L 583.0 50.0 L 584.0 49.0 L 598.0 49.0 L 599.0 48.0 L 613.0 48.0 L 614.0 47.0 L 629.0 47.0 L 630.0 46.0 L 644.0 46.0 L 645.0 45.0 L 659.0 45.0 L 660.0 44.0 L 674.0 44.0 L 675.0 43.0 L 706.0 42.0 L 707.0 41.0 L 721.0 41.0 L 722.0 40.0 L 736.0 40.0 L 737.0 39.0 L 751.0 39.0 L 752.0 38.0 L 767.0 38.0 L 768.0 37.0 L 796.0 36.0 L 797.0 35.0 L 830.0 35.0 L 831.0 36.0 L 835.0 36.0 L 836.0 37.0 L 844.0 38.0 L 845.0 39.0 L 853.0 41.0 L 856.0 43.0 L 858.0 43.0 L 870.0 49.0 L 879.0 56.0 L 880.0 56.0 L 891.0 66.0 L 891.0 67.0 Z
M 425.0 349.0 L 426.0 348.0 L 428.0 349.0 L 428.0 365.0 L 429.0 366.0 L 429.0 373.0 L 430.0 374.0 L 430.0 379.0 L 431.0 380.0 L 432.0 388.0 L 434.0 392.0 L 435.0 399.0 L 436.0 400.0 L 437.0 405.0 L 439.0 408.0 L 439.0 410.0 L 446.0 424.0 L 448.0 426.0 L 449.0 429.0 L 454.0 435.0 L 454.0 436.0 L 468.0 450.0 L 469.0 450.0 L 477.0 456.0 L 485.0 460.0 L 487.0 460.0 L 491.0 462.0 L 494.0 462.0 L 495.0 463.0 L 506.0 463.0 L 507.0 464.0 L 506.0 461.0 L 502.0 457.0 L 502.0 456.0 L 498.0 451.0 L 494.0 443.0 L 494.0 442.0 L 496.0 441.0 L 509.0 451.0 L 521.0 457.0 L 523.0 457.0 L 526.0 459.0 L 528.0 459.0 L 535.0 462.0 L 538.0 462.0 L 539.0 463.0 L 551.0 464.0 L 552.0 465.0 L 578.0 465.0 L 579.0 464.0 L 584.0 464.0 L 585.0 463.0 L 589.0 463.0 L 591.0 462.0 L 589.0 458.0 L 589.0 456.0 L 587.0 453.0 L 587.0 451.0 L 585.0 448.0 L 585.0 446.0 L 584.0 445.0 L 584.0 443.0 L 583.0 442.0 L 583.0 440.0 L 580.0 433.0 L 580.0 430.0 L 579.0 429.0 L 577.0 418.0 L 576.0 417.0 L 576.0 413.0 L 575.0 412.0 L 574.0 404.0 L 573.0 403.0 L 573.0 399.0 L 572.0 398.0 L 572.0 393.0 L 574.0 392.0 L 577.0 397.0 L 583.0 404.0 L 583.0 405.0 L 587.0 409.0 L 587.0 410.0 L 611.0 434.0 L 612.0 434.0 L 622.0 443.0 L 623.0 443.0 L 640.0 455.0 L 645.0 457.0 L 647.0 459.0 L 657.0 464.0 L 659.0 464.0 L 664.0 467.0 L 666.0 467.0 L 669.0 469.0 L 671.0 469.0 L 672.0 470.0 L 674.0 470.0 L 675.0 471.0 L 677.0 471.0 L 684.0 474.0 L 687.0 474.0 L 688.0 475.0 L 691.0 475.0 L 692.0 476.0 L 697.0 476.0 L 699.0 478.0 L 699.0 516.0 L 698.0 517.0 L 698.0 529.0 L 697.0 530.0 L 697.0 536.0 L 696.0 537.0 L 696.0 544.0 L 695.0 545.0 L 695.0 550.0 L 694.0 551.0 L 694.0 555.0 L 693.0 556.0 L 692.0 565.0 L 691.0 566.0 L 691.0 569.0 L 689.0 573.0 L 688.0 579.0 L 686.0 582.0 L 686.0 584.0 L 684.0 587.0 L 684.0 589.0 L 680.0 597.0 L 678.0 599.0 L 677.0 602.0 L 675.0 604.0 L 673.0 608.0 L 669.0 612.0 L 669.0 613.0 L 665.0 617.0 L 665.0 618.0 L 670.0 616.0 L 672.0 614.0 L 678.0 611.0 L 680.0 611.0 L 681.0 610.0 L 683.0 610.0 L 690.0 607.0 L 693.0 607.0 L 694.0 606.0 L 697.0 606.0 L 698.0 605.0 L 703.0 605.0 L 704.0 604.0 L 722.0 604.0 L 723.0 605.0 L 730.0 605.0 L 731.0 606.0 L 735.0 606.0 L 736.0 607.0 L 739.0 607.0 L 740.0 608.0 L 745.0 609.0 L 760.0 616.0 L 769.0 623.0 L 770.0 623.0 L 782.0 635.0 L 782.0 636.0 L 789.0 645.0 L 794.0 655.0 L 794.0 657.0 L 795.0 658.0 L 795.0 660.0 L 798.0 667.0 L 799.0 678.0 L 800.0 679.0 L 800.0 693.0 L 799.0 694.0 L 799.0 700.0 L 798.0 701.0 L 798.0 704.0 L 797.0 705.0 L 790.0 705.0 L 789.0 704.0 L 789.0 698.0 L 790.0 697.0 L 790.0 679.0 L 789.0 678.0 L 789.0 674.0 L 788.0 673.0 L 787.0 666.0 L 784.0 660.0 L 784.0 658.0 L 774.0 642.0 L 764.0 632.0 L 763.0 632.0 L 760.0 629.0 L 754.0 626.0 L 752.0 624.0 L 748.0 622.0 L 746.0 622.0 L 741.0 619.0 L 738.0 619.0 L 737.0 618.0 L 735.0 618.0 L 734.0 617.0 L 730.0 617.0 L 729.0 616.0 L 724.0 616.0 L 723.0 615.0 L 705.0 615.0 L 704.0 616.0 L 694.0 617.0 L 693.0 618.0 L 685.0 620.0 L 682.0 622.0 L 680.0 622.0 L 674.0 625.0 L 665.0 632.0 L 664.0 632.0 L 651.0 646.0 L 643.0 661.0 L 643.0 663.0 L 641.0 667.0 L 641.0 670.0 L 640.0 671.0 L 640.0 674.0 L 639.0 675.0 L 639.0 684.0 L 638.0 685.0 L 638.0 688.0 L 639.0 689.0 L 639.0 695.0 L 638.0 696.0 L 635.0 695.0 L 629.0 688.0 L 629.0 671.0 L 630.0 670.0 L 630.0 667.0 L 631.0 666.0 L 632.0 660.0 L 634.0 657.0 L 634.0 655.0 L 641.0 642.0 L 643.0 640.0 L 645.0 636.0 L 656.0 625.0 L 649.0 628.0 L 647.0 630.0 L 635.0 636.0 L 633.0 636.0 L 623.0 641.0 L 621.0 641.0 L 620.0 642.0 L 618.0 642.0 L 617.0 643.0 L 615.0 643.0 L 608.0 646.0 L 605.0 646.0 L 604.0 647.0 L 598.0 648.0 L 597.0 649.0 L 593.0 650.0 L 591.0 652.0 L 590.0 656.0 L 589.0 657.0 L 589.0 660.0 L 590.0 661.0 L 590.0 669.0 L 591.0 670.0 L 592.0 678.0 L 594.0 682.0 L 594.0 684.0 L 593.0 685.0 L 576.0 685.0 L 575.0 686.0 L 516.0 686.0 L 515.0 687.0 L 482.0 687.0 L 481.0 688.0 L 458.0 688.0 L 457.0 689.0 L 452.0 689.0 L 451.0 688.0 L 453.0 681.0 L 454.0 680.0 L 454.0 677.0 L 455.0 676.0 L 455.0 668.0 L 456.0 667.0 L 455.0 665.0 L 456.0 663.0 L 456.0 660.0 L 455.0 659.0 L 455.0 657.0 L 452.0 654.0 L 450.0 653.0 L 447.0 653.0 L 446.0 652.0 L 442.0 652.0 L 441.0 651.0 L 434.0 650.0 L 433.0 649.0 L 430.0 649.0 L 429.0 648.0 L 426.0 648.0 L 425.0 647.0 L 422.0 647.0 L 421.0 646.0 L 407.0 642.0 L 404.0 640.0 L 402.0 640.0 L 399.0 638.0 L 395.0 637.0 L 393.0 635.0 L 388.0 633.0 L 386.0 631.0 L 379.0 627.0 L 364.0 612.0 L 364.0 611.0 L 361.0 608.0 L 357.0 600.0 L 355.0 598.0 L 355.0 596.0 L 349.0 584.0 L 349.0 581.0 L 346.0 574.0 L 346.0 570.0 L 345.0 569.0 L 345.0 566.0 L 344.0 565.0 L 343.0 555.0 L 342.0 554.0 L 342.0 547.0 L 341.0 546.0 L 341.0 539.0 L 340.0 538.0 L 340.0 527.0 L 339.0 526.0 L 338.0 506.0 L 344.0 501.0 L 345.0 501.0 L 363.0 483.0 L 363.0 482.0 L 371.0 473.0 L 371.0 472.0 L 381.0 458.0 L 382.0 455.0 L 384.0 453.0 L 387.0 446.0 L 389.0 444.0 L 395.0 432.0 L 395.0 430.0 L 400.0 421.0 L 400.0 419.0 L 403.0 414.0 L 403.0 412.0 L 405.0 409.0 L 405.0 407.0 L 409.0 399.0 L 411.0 391.0 L 413.0 388.0 L 413.0 386.0 L 414.0 385.0 L 414.0 383.0 L 415.0 382.0 L 415.0 380.0 L 416.0 379.0 L 416.0 377.0 L 417.0 376.0 L 417.0 374.0 L 418.0 373.0 L 418.0 371.0 L 419.0 370.0 L 419.0 368.0 L 420.0 367.0 L 420.0 365.0 L 423.0 358.0 L 423.0 355.0 L 424.0 354.0 Z
M 52.0 732.0 L 53.0 730.0 L 55.0 730.0 L 60.0 733.0 L 62.0 733.0 L 65.0 735.0 L 67.0 735.0 L 70.0 737.0 L 72.0 737.0 L 76.0 739.0 L 79.0 739.0 L 80.0 740.0 L 85.0 740.0 L 86.0 741.0 L 92.0 741.0 L 93.0 742.0 L 123.0 742.0 L 124.0 741.0 L 130.0 741.0 L 131.0 740.0 L 137.0 740.0 L 138.0 739.0 L 145.0 739.0 L 146.0 738.0 L 152.0 738.0 L 153.0 737.0 L 159.0 737.0 L 160.0 736.0 L 166.0 736.0 L 167.0 735.0 L 174.0 735.0 L 175.0 734.0 L 189.0 733.0 L 190.0 732.0 L 196.0 732.0 L 197.0 731.0 L 204.0 731.0 L 205.0 730.0 L 211.0 730.0 L 212.0 729.0 L 219.0 729.0 L 220.0 728.0 L 227.0 728.0 L 228.0 727.0 L 235.0 727.0 L 236.0 726.0 L 245.0 726.0 L 246.0 725.0 L 250.0 725.0 L 252.0 727.0 L 252.0 729.0 L 260.0 743.0 L 268.0 751.0 L 272.0 752.0 L 274.0 754.0 L 274.0 756.0 L 281.0 763.0 L 282.0 763.0 L 287.0 767.0 L 293.0 770.0 L 295.0 770.0 L 298.0 772.0 L 306.0 773.0 L 307.0 774.0 L 313.0 774.0 L 314.0 775.0 L 328.0 775.0 L 329.0 774.0 L 334.0 774.0 L 335.0 773.0 L 338.0 773.0 L 339.0 772.0 L 347.0 770.0 L 357.0 764.0 L 367.0 754.0 L 371.0 746.0 L 372.0 741.0 L 374.0 739.0 L 379.0 737.0 L 382.0 734.0 L 383.0 734.0 L 383.0 733.0 L 388.0 728.0 L 393.0 718.0 L 393.0 716.0 L 395.0 712.0 L 408.0 712.0 L 409.0 711.0 L 428.0 711.0 L 429.0 710.0 L 451.0 710.0 L 452.0 709.0 L 477.0 709.0 L 478.0 708.0 L 511.0 708.0 L 512.0 707.0 L 641.0 707.0 L 647.0 719.0 L 655.0 727.0 L 660.0 729.0 L 662.0 731.0 L 662.0 734.0 L 665.0 741.0 L 667.0 743.0 L 667.0 744.0 L 677.0 754.0 L 678.0 754.0 L 683.0 758.0 L 687.0 760.0 L 689.0 760.0 L 692.0 762.0 L 698.0 763.0 L 699.0 764.0 L 703.0 764.0 L 704.0 765.0 L 711.0 765.0 L 712.0 766.0 L 719.0 766.0 L 720.0 765.0 L 727.0 765.0 L 728.0 764.0 L 732.0 764.0 L 733.0 763.0 L 741.0 761.0 L 755.0 753.0 L 764.0 744.0 L 768.0 742.0 L 773.0 737.0 L 773.0 736.0 L 777.0 732.0 L 777.0 731.0 L 781.0 726.0 L 783.0 722.0 L 783.0 720.0 L 786.0 716.0 L 789.0 716.0 L 790.0 717.0 L 799.0 717.0 L 800.0 718.0 L 809.0 718.0 L 810.0 719.0 L 818.0 719.0 L 819.0 720.0 L 827.0 720.0 L 828.0 721.0 L 835.0 721.0 L 836.0 722.0 L 844.0 722.0 L 845.0 723.0 L 852.0 723.0 L 853.0 724.0 L 860.0 724.0 L 861.0 725.0 L 868.0 725.0 L 869.0 726.0 L 877.0 726.0 L 878.0 727.0 L 884.0 727.0 L 885.0 728.0 L 892.0 728.0 L 893.0 729.0 L 907.0 730.0 L 908.0 731.0 L 915.0 731.0 L 916.0 732.0 L 923.0 732.0 L 924.0 733.0 L 933.0 733.0 L 934.0 734.0 L 954.0 734.0 L 955.0 733.0 L 963.0 733.0 L 964.0 732.0 L 975.0 730.0 L 987.0 725.0 L 989.0 726.0 L 985.0 735.0 L 983.0 737.0 L 979.0 744.0 L 975.0 748.0 L 975.0 749.0 L 957.0 766.0 L 956.0 766.0 L 951.0 770.0 L 934.0 778.0 L 928.0 779.0 L 927.0 780.0 L 924.0 780.0 L 923.0 781.0 L 920.0 781.0 L 919.0 782.0 L 914.0 782.0 L 913.0 783.0 L 887.0 784.0 L 886.0 783.0 L 854.0 783.0 L 853.0 782.0 L 821.0 782.0 L 820.0 781.0 L 783.0 781.0 L 782.0 780.0 L 747.0 780.0 L 746.0 779.0 L 697.0 779.0 L 696.0 778.0 L 634.0 778.0 L 633.0 777.0 L 592.0 777.0 L 585.0 785.0 L 579.0 795.0 L 576.0 798.0 L 576.0 799.0 L 573.0 802.0 L 570.0 807.0 L 566.0 811.0 L 566.0 812.0 L 553.0 826.0 L 553.0 827.0 L 539.0 841.0 L 538.0 841.0 L 526.0 852.0 L 525.0 852.0 L 522.0 855.0 L 521.0 855.0 L 513.0 861.0 L 508.0 863.0 L 504.0 866.0 L 502.0 866.0 L 499.0 868.0 L 497.0 868.0 L 491.0 871.0 L 486.0 871.0 L 484.0 870.0 L 482.0 867.0 L 482.0 862.0 L 483.0 861.0 L 483.0 857.0 L 484.0 856.0 L 484.0 852.0 L 485.0 851.0 L 485.0 846.0 L 486.0 845.0 L 486.0 839.0 L 487.0 838.0 L 487.0 816.0 L 486.0 815.0 L 486.0 810.0 L 485.0 809.0 L 484.0 804.0 L 480.0 796.0 L 477.0 793.0 L 477.0 792.0 L 471.0 787.0 L 465.0 784.0 L 457.0 784.0 L 456.0 783.0 L 351.0 783.0 L 350.0 784.0 L 293.0 784.0 L 292.0 785.0 L 258.0 785.0 L 257.0 786.0 L 202.0 787.0 L 201.0 788.0 L 177.0 788.0 L 176.0 789.0 L 133.0 789.0 L 132.0 788.0 L 121.0 787.0 L 120.0 786.0 L 117.0 786.0 L 116.0 785.0 L 113.0 785.0 L 112.0 784.0 L 104.0 782.0 L 101.0 780.0 L 99.0 780.0 L 91.0 776.0 L 89.0 774.0 L 82.0 770.0 L 79.0 767.0 L 78.0 767.0 L 65.0 754.0 L 65.0 753.0 L 59.0 746.0 Z
M 684.0 729.0 L 687.0 724.0 L 691.0 720.0 L 701.0 715.0 L 704.0 715.0 L 705.0 714.0 L 722.0 714.0 L 723.0 715.0 L 729.0 716.0 L 735.0 719.0 L 742.0 726.0 L 744.0 730.0 L 744.0 739.0 L 743.0 741.0 L 737.0 747.0 L 733.0 749.0 L 727.0 750.0 L 726.0 751.0 L 721.0 751.0 L 720.0 752.0 L 711.0 752.0 L 710.0 751.0 L 705.0 751.0 L 704.0 750.0 L 698.0 749.0 L 689.0 744.0 L 684.0 737.0 Z
M 292.0 741.0 L 295.0 735.0 L 300.0 730.0 L 307.0 726.0 L 309.0 726.0 L 313.0 724.0 L 318.0 724.0 L 319.0 723.0 L 330.0 723.0 L 331.0 724.0 L 334.0 724.0 L 335.0 725.0 L 340.0 726.0 L 342.0 728.0 L 343.0 728.0 L 350.0 735.0 L 352.0 739.0 L 352.0 745.0 L 350.0 749.0 L 345.0 754.0 L 338.0 758.0 L 332.0 759.0 L 331.0 760.0 L 325.0 760.0 L 324.0 761.0 L 314.0 761.0 L 313.0 760.0 L 309.0 760.0 L 308.0 759.0 L 302.0 758.0 L 297.0 754.0 L 296.0 754.0 L 293.0 750.0 L 293.0 748.0 L 292.0 747.0 Z
M 317.0 688.0 L 323.0 688.0 L 325.0 689.0 L 329.0 693.0 L 331.0 697.0 L 331.0 700.0 L 332.0 701.0 L 331.0 708.0 L 329.0 712.0 L 324.0 716.0 L 317.0 716.0 L 315.0 715.0 L 311.0 711.0 L 310.0 707.0 L 309.0 706.0 L 309.0 697.0 L 311.0 693.0 Z
M 711.0 678.0 L 716.0 678.0 L 718.0 679.0 L 723.0 684.0 L 724.0 686.0 L 724.0 689.0 L 725.0 690.0 L 725.0 695.0 L 724.0 696.0 L 724.0 698.0 L 722.0 702.0 L 717.0 706.0 L 710.0 706.0 L 708.0 705.0 L 704.0 701.0 L 703.0 697.0 L 702.0 696.0 L 702.0 689.0 L 703.0 688.0 L 703.0 686.0 L 704.0 684.0 Z
M 278.0 699.0 L 284.0 699.0 L 286.0 700.0 L 291.0 705.0 L 292.0 709.0 L 293.0 710.0 L 293.0 718.0 L 291.0 722.0 L 289.0 724.0 L 285.0 726.0 L 282.0 726.0 L 281.0 725.0 L 277.0 724.0 L 272.0 717.0 L 271.0 708.0 L 272.0 707.0 L 273.0 703.0 Z
M 751.0 689.0 L 756.0 689.0 L 758.0 690.0 L 762.0 694.0 L 763.0 696.0 L 763.0 699.0 L 764.0 700.0 L 763.0 707.0 L 761.0 711.0 L 755.0 716.0 L 750.0 716.0 L 746.0 714.0 L 744.0 712.0 L 742.0 708.0 L 742.0 700.0 L 743.0 699.0 L 743.0 697.0 L 744.0 695.0 Z
M 671.0 687.0 L 676.0 687.0 L 678.0 688.0 L 682.0 692.0 L 684.0 696.0 L 684.0 699.0 L 685.0 700.0 L 685.0 703.0 L 684.0 704.0 L 684.0 707.0 L 683.0 709.0 L 680.0 712.0 L 676.0 714.0 L 672.0 714.0 L 670.0 713.0 L 665.0 708.0 L 664.0 706.0 L 664.0 703.0 L 663.0 702.0 L 663.0 697.0 L 664.0 696.0 L 665.0 692.0 Z
M 356.0 697.0 L 363.0 697.0 L 368.0 702.0 L 369.0 706.0 L 370.0 707.0 L 370.0 713.0 L 369.0 714.0 L 369.0 716.0 L 368.0 718.0 L 362.0 723.0 L 356.0 723.0 L 354.0 722.0 L 349.0 716.0 L 349.0 706.0 L 351.0 702.0 Z" fill="url(#roseFill)" fill-rule="evenodd"/>
</svg>
