<svg xmlns="http://www.w3.org/2000/svg" width="96" height="96" viewBox="0 0 96 96" preserveAspectRatio="none">
  <path d="M22 3H72L93 24V72L72 93H24L3 72V22Z" fill="none" stroke="#00f5ff" stroke-opacity="0.07" stroke-width="11" />
  <path d="M22 3H72L93 24V72L72 93H24L3 72V22Z" fill="none" stroke="#00f5ff" stroke-opacity="0.2" stroke-width="6" />
  <path d="M22 3H72L93 24V72L72 93H24L3 72V22Z" fill="none" stroke="#00f5ff" stroke-width="2" />
  <path d="M3 34V22L22 3H42M54 3H72L93 24V42" fill="none" stroke="#00f5ff" stroke-opacity="0.18" stroke-width="8" />
  <path d="M3 34V22L22 3H42M54 3H72L93 24V42" fill="none" stroke="#8ffaff" stroke-width="3" />
  <path d="M93 56V72L72 93H52M40 93H24L3 72V54" fill="none" stroke="#ff2da3" stroke-opacity="0.18" stroke-width="8" />
  <path d="M93 56V72L72 93H52M40 93H24L3 72V54" fill="none" stroke="#ff2da3" stroke-width="3" />
  <path d="M8 29V24L24 8H34M88 67V72L72 88H62" fill="none" stroke="#ff2da3" stroke-opacity="0.14" stroke-width="5" />
  <path d="M8 29V24L24 8H34M88 67V72L72 88H62" fill="none" stroke="#ff63bb" stroke-opacity="0.72" stroke-width="1.5" />
  <!-- Edge markers live in fixed 24 px corner slices instead of stretchable edge centers. -->
  <g fill="#00f5ff" fill-opacity="0.14">
    <rect x="8" y="0" width="9" height="6" />
    <rect x="79" y="90" width="9" height="6" />
    <rect x="0" y="79" width="6" height="9" />
    <rect x="90" y="8" width="6" height="9" />
  </g>
  <g fill="#d9ffff">
    <rect x="10" y="2" width="5" height="2" />
    <rect x="81" y="92" width="5" height="2" />
    <rect x="2" y="81" width="2" height="5" />
    <rect x="92" y="10" width="2" height="5" />
  </g>
</svg>
