<svg xmlns="http://www.w3.org/2000/svg" width="96" height="64" viewBox="0 0 96 64" preserveAspectRatio="none">
  <path d="M18 3H78Q93 3 93 18V46Q93 61 78 61H18Q3 61 3 46V18Q3 3 18 3Z" fill="none" stroke="#ffdce7" stroke-opacity="0.18" stroke-width="5" />
  <path d="M18 3H78Q93 3 93 18V46Q93 61 78 61H18Q3 61 3 46V18Q3 3 18 3Z" fill="none" stroke="#f4b2c4" stroke-opacity="0.64" stroke-width="1.4" />
  <!-- Corner accents stay inside the 20 px slices; straight runs may cross into edge slices. -->
  <path d="M3 18Q3 3 18 3H35M61 61H78Q93 61 93 46" fill="none" stroke="#ffe4ed" stroke-width="2.2" />
  <path d="M8 12H13M83 52H88" stroke="#d4788e" stroke-width="2.4" stroke-linecap="round" />
</svg>
